<svg width="24" height="27" viewBox="0 0 24 27" fill="none" xmlns="http://www.w3.org/2000/svg">
  <!-- Flag background -->
  <path d="M1.33561 5.99482C1.67255 5.84761 1.90802 5.51142 1.90802 5.12023C1.90802 4.59336 1.4809 4.16626 0.954016 4.16626C0.427124 4.16626 0 4.59336 0 5.12023C0 5.51142 0.235467 5.8476 0.572406 5.99481V22.9488C0.572406 23.0834 0.681527 23.1925 0.816176 23.1925H1.09186C1.22651 23.1925 1.33561 23.0834 1.33561 22.9488V5.99482Z" fill="#fff"/>
  <path fill-rule="evenodd" clip-rule="evenodd" d="M8.7556 18.2276C5.83001 18.2276 4.22033 18.3979 2.70303 18.6585C2.5533 18.6842 2.4159 18.5693 2.4159 18.4174V6.02258C2.4159 5.89978 2.50697 5.79619 2.62876 5.78051L2.92743 5.74184C4.36154 5.55563 6.1278 5.32631 8.41751 5.32631C10.3978 5.32631 12.0256 5.50603 13.4653 5.66499C14.6068 5.791 15.6301 5.90398 16.6169 5.90398C18.7146 5.90398 20.2298 5.81891 21.6678 5.64877C21.8136 5.63152 21.9423 5.74495 21.9423 5.89173V18.3219C21.9423 18.4357 21.864 18.5346 21.7519 18.5536C20.7623 18.7213 18.4318 18.8052 16.6169 18.8052C15.7532 18.8052 14.7061 18.6912 13.5421 18.5645L13.54 18.5643C12.0843 18.4059 10.4461 18.2276 8.7556 18.2276ZM12.8894 8.55273V11.3774C14.154 11.5152 14.8417 11.5841 15.7712 11.5841V13.3171C14.913 13.3171 14.0549 13.2483 12.8894 13.1104V15.9729C12.4768 15.8977 12.2059 15.8596 11.9867 15.8287L11.9854 15.8285C11.7603 15.7968 11.5897 15.7727 11.3757 15.724C11.3646 15.4832 11.3622 14.2912 11.3635 12.937C10.2032 12.8357 9.21665 12.8357 8.67073 12.8357V11.1654C8.76291 11.1654 8.85653 11.1653 8.95165 11.1651C9.6642 11.1639 10.4618 11.1626 11.3665 11.2265C11.3702 9.71393 11.3757 8.40691 11.3757 8.40691C11.7984 8.40691 12.8894 8.55273 12.8894 8.55273Z" fill="#fff"/>
</svg>